solid 
facet normal -1 0 0
outer loop 
vertex -269.039978 27 425.911011
vertex -269.039978 177 425.911011
vertex -269.039978 177 -70
endloop 
endfacet 
facet normal -1 0 0
outer loop 
vertex -269.039978 177 -70
vertex -269.039978 27 -70
vertex -269.039978 27 425.911011
endloop 
endfacet 
facet normal 0.087818 0.571179 0.816115
outer loop 
vertex -104.039993 110 189.76741
vertex -74.040001 108.687668 187.494385
vertex -74.040001 111.457794 185.36879
endloop 
endfacet 
facet normal 0.087818 -0.992365 -0.086598
outer loop 
vertex -74.040001 88.624657 175.910995
vertex -104.039993 86 175.910995
vertex -104.039993 86.545181 171.769897
endloop 
endfacet 
facet normal 0.087818 -0.936138 -0.34049
outer loop 
vertex -74.040001 89.080414 172.449203
vertex -104.039993 86.545181 171.769897
vertex -104.039993 88.143593 167.910995
endloop 
endfacet 
facet normal 0.087818 0.34049 0.936138
outer loop 
vertex -104.039993 106.141106 191.365814
vertex -74.040001 105.461792 188.830582
vertex -74.040001 108.687668 187.494385
endloop 
endfacet 
facet normal 0.087818 0.086598 0.992365
outer loop 
vertex -104.039993 102 191.910995
vertex -74.040001 102 189.286331
vertex -74.040001 105.461792 188.830582
endloop 
endfacet 
facet normal 0.087818 -0.173196 0.980964
outer loop 
vertex -104.039993 97.858902 191.365814
vertex -74.040001 98.538208 188.830582
vertex -74.040001 102 189.286331
endloop 
endfacet 
facet normal 0.087818 -0.421187 0.902712
outer loop 
vertex -104.039993 94 189.76741
vertex -74.040001 95.312325 187.494385
vertex -74.040001 98.538208 188.830582
endloop 
endfacet 
facet normal 0.087818 -0.640474 0.762942
outer loop 
vertex -104.039993 90.686295 187.224716
vertex -74.040001 92.542206 185.36879
vertex -74.040001 95.312325 187.494385
endloop 
endfacet 
facet normal 0.087818 -0.086598 -0.992365
outer loop 
vertex -104.039993 102 159.911011
vertex -74.040001 102 162.53566
vertex -74.040001 98.538208 162.991425
endloop 
endfacet 
facet normal 0.087818 -0.34049 -0.936138
outer loop 
vertex -104.039993 97.858902 160.456177
vertex -74.040001 98.538208 162.991425
vertex -74.040001 95.312325 164.327621
endloop 
endfacet 
facet normal 0.087818 -0.571179 -0.816115
outer loop 
vertex -104.039993 94 162.054596
vertex -74.040001 95.312325 164.327621
vertex -74.040001 92.542206 166.453217
endloop 
endfacet 
facet normal 0.087818 -0.762942 -0.640474
outer loop 
vertex -104.039993 90.686295 164.59729
vertex -74.040001 92.542206 166.453217
vertex -74.040001 90.416618 169.223328
endloop 
endfacet 
facet normal 0.087818 -0.902712 -0.421187
outer loop 
vertex -104.039993 88.143593 167.910995
vertex -74.040001 90.416618 169.223328
vertex -74.040001 89.080414 172.449203
endloop 
endfacet 
facet normal 0.087818 -0.980964 -0.173196
outer loop 
vertex -104.039993 86.545181 171.769897
vertex -74.040001 89.080414 172.449203
vertex -74.040001 88.624657 175.910995
endloop 
endfacet 
facet normal 0.087818 -0.992365 0.086598
outer loop 
vertex -104.039993 86 175.910995
vertex -74.040001 88.624657 175.910995
vertex -74.040001 89.080414 179.372787
endloop 
endfacet 
facet normal 0.087818 -0.936138 0.34049
outer loop 
vertex -104.039993 86.545181 180.052109
vertex -74.040001 89.080414 179.372787
vertex -74.040001 90.416618 182.598663
endloop 
endfacet 
facet normal 0.087818 -0.816115 -0.571179
outer loop 
vertex -74.040001 90.416618 169.223328
vertex -104.039993 88.143593 167.910995
vertex -104.039993 90.686295 164.59729
endloop 
endfacet 
facet normal 0.087818 -0.640474 -0.762942
outer loop 
vertex -74.040001 92.542206 166.453217
vertex -104.039993 90.686295 164.59729
vertex -104.039993 94 162.054596
endloop 
endfacet 
facet normal 0.087818 0.992365 0.086598
outer loop 
vertex -74.040001 115.375343 175.910995
vertex -104.039993 118 175.910995
vertex -104.039993 117.454811 180.052109
endloop 
endfacet 
facet normal 0.087818 -0.421187 -0.902712
outer loop 
vertex -74.040001 95.312325 164.327621
vertex -104.039993 94 162.054596
vertex -104.039993 97.858902 160.456177
endloop 
endfacet 
facet normal 0.087818 -0.173196 -0.980964
outer loop 
vertex -74.040001 98.538208 162.991425
vertex -104.039993 97.858902 160.456177
vertex -104.039993 102 159.911011
endloop 
endfacet 
facet normal 0.087818 -0.816115 0.571179
outer loop 
vertex -104.039993 88.143593 183.910995
vertex -74.040001 90.416618 182.598663
vertex -74.040001 92.542206 185.36879
endloop 
endfacet 
facet normal 0.087818 0.762942 0.640474
outer loop 
vertex -104.039993 113.313713 187.224716
vertex -74.040001 111.457794 185.36879
vertex -74.040001 113.583389 182.598663
endloop 
endfacet 
facet normal 0.087818 0.902712 0.421187
outer loop 
vertex -104.039993 115.856407 183.910995
vertex -74.040001 113.583389 182.598663
vertex -74.040001 114.919586 179.372787
endloop 
endfacet 
facet normal 0.087818 0.980964 0.173196
outer loop 
vertex -104.039993 117.454811 180.052109
vertex -74.040001 114.919586 179.372787
vertex -74.040001 115.375343 175.910995
endloop 
endfacet 
facet normal 0.087818 0.992365 -0.086598
outer loop 
vertex -104.039993 118 175.910995
vertex -74.040001 115.375343 175.910995
vertex -74.040001 114.919586 172.449203
endloop 
endfacet 
facet normal 0.087818 0.936138 -0.34049
outer loop 
vertex -104.039993 117.454811 171.769897
vertex -74.040001 114.919586 172.449203
vertex -74.040001 113.583389 169.223328
endloop 
endfacet 
facet normal 0.087818 0.816115 -0.571179
outer loop 
vertex -104.039993 115.856407 167.910995
vertex -74.040001 113.583389 169.223328
vertex -74.040001 111.457794 166.453217
endloop 
endfacet 
facet normal 0.087818 0.640474 -0.762942
outer loop 
vertex -104.039993 113.313713 164.59729
vertex -74.040001 111.457794 166.453217
vertex -74.040001 108.687668 164.327621
endloop 
endfacet 
facet normal 0.087818 0.421187 -0.902712
outer loop 
vertex -104.039993 110 162.054596
vertex -74.040001 108.687668 164.327621
vertex -74.040001 105.461792 162.991425
endloop 
endfacet 
facet normal 0.087818 0.173196 -0.980964
outer loop 
vertex -104.039993 106.141106 160.456177
vertex -74.040001 105.461792 162.991425
vertex -74.040001 102 162.53566
endloop 
endfacet 
facet normal 0.087818 0.086598 -0.992365
outer loop 
vertex -74.040001 102 162.53566
vertex -104.039993 102 159.911011
vertex -104.039993 106.141106 160.456177
endloop 
endfacet 
facet normal 0.087818 0.34049 -0.936138
outer loop 
vertex -74.040001 105.461792 162.991425
vertex -104.039993 106.141106 160.456177
vertex -104.039993 110 162.054596
endloop 
endfacet 
facet normal 0.087818 0.571179 -0.816115
outer loop 
vertex -74.040001 108.687668 164.327621
vertex -104.039993 110 162.054596
vertex -104.039993 113.313713 164.59729
endloop 
endfacet 
facet normal 0.087818 0.762942 -0.640474
outer loop 
vertex -74.040001 111.457794 166.453217
vertex -104.039993 113.313713 164.59729
vertex -104.039993 115.856407 167.910995
endloop 
endfacet 
facet normal 0.087818 0.902712 -0.421187
outer loop 
vertex -74.040001 113.583389 169.223328
vertex -104.039993 115.856407 167.910995
vertex -104.039993 117.454811 171.769897
endloop 
endfacet 
facet normal 0.087818 0.980964 -0.173196
outer loop 
vertex -74.040001 114.919586 172.449203
vertex -104.039993 117.454811 171.769897
vertex -104.039993 118 175.910995
endloop 
endfacet 
facet normal 0.087818 0.936138 0.34049
outer loop 
vertex -74.040001 114.919586 179.372787
vertex -104.039993 117.454811 180.052109
vertex -104.039993 115.856407 183.910995
endloop 
endfacet 
facet normal 0.087818 0.816115 0.571179
outer loop 
vertex -74.040001 113.583389 182.598663
vertex -104.039993 115.856407 183.910995
vertex -104.039993 113.313713 187.224716
endloop 
endfacet 
facet normal 0.087818 0.640474 0.762942
outer loop 
vertex -74.040001 111.457794 185.36879
vertex -104.039993 113.313713 187.224716
vertex -104.039993 110 189.76741
endloop 
endfacet 
facet normal 0.087818 0.421187 0.902712
outer loop 
vertex -74.040001 108.687668 187.494385
vertex -104.039993 110 189.76741
vertex -104.039993 106.141106 191.365814
endloop 
endfacet 
facet normal 0.087818 0.173196 0.980964
outer loop 
vertex -74.040001 105.461792 188.830582
vertex -104.039993 106.141106 191.365814
vertex -104.039993 102 191.910995
endloop 
endfacet 
facet normal 0.087818 -0.086598 0.992365
outer loop 
vertex -74.040001 102 189.286331
vertex -104.039993 102 191.910995
vertex -104.039993 97.858902 191.365814
endloop 
endfacet 
facet normal 0.087818 -0.34049 0.936138
outer loop 
vertex -74.040001 98.538208 188.830582
vertex -104.039993 97.858902 191.365814
vertex -104.039993 94 189.76741
endloop 
endfacet 
facet normal 0.087818 -0.571179 0.816115
outer loop 
vertex -74.040001 95.312325 187.494385
vertex -104.039993 94 189.76741
vertex -104.039993 90.686295 187.224716
endloop 
endfacet 
facet normal 0.087818 -0.762942 0.640474
outer loop 
vertex -74.040001 92.542206 185.36879
vertex -104.039993 90.686295 187.224716
vertex -104.039993 88.143593 183.910995
endloop 
endfacet 
facet normal 0.087818 -0.902712 0.421187
outer loop 
vertex -74.040001 90.416618 182.598663
vertex -104.039993 88.143593 183.910995
vertex -104.039993 86.545181 180.052109
endloop 
endfacet 
facet normal 0.087818 -0.980964 0.173196
outer loop 
vertex -74.040001 89.080414 179.372787
vertex -104.039993 86.545181 180.052109
vertex -104.039993 86 175.910995
endloop 
endfacet 
facet normal 0 0 -1
outer loop 
vertex -119.040001 177 -70
vertex -119.040001 27 -70
vertex -269.039978 27 -70
endloop 
endfacet 
facet normal 0 0 -1
outer loop 
vertex -269.039978 27 -70
vertex -269.039978 177 -70
vertex -119.040001 177 -70
endloop 
endfacet 
facet normal 0 -0 1
outer loop 
vertex -269.039978 27 425.911011
vertex 21 27 425.911011
vertex 21 177 425.911011
endloop 
endfacet 
facet normal 0 -0 1
outer loop 
vertex 21 177 425.911011
vertex -269.039978 177 425.911011
vertex -269.039978 27 425.911011
endloop 
endfacet 
facet normal -0 -1 0
outer loop 
vertex -119.040001 27 275.911011
vertex 21 27 275.911011
vertex 21 27 425.911011
endloop 
endfacet 
facet normal -0 -1 0
outer loop 
vertex -119.040001 27 175.910995
vertex -119.040001 27 275.911011
vertex -269.039978 27 425.911011
endloop 
endfacet 
facet normal -0 -1 0
outer loop 
vertex -269.039978 27 -70
vertex -119.040001 27 -70
vertex -119.040001 27 175.910995
endloop 
endfacet 
facet normal -0 -1 0
outer loop 
vertex 21 27 425.911011
vertex -269.039978 27 425.911011
vertex -119.040001 27 275.911011
endloop 
endfacet 
facet normal -0 -1 0
outer loop 
vertex -269.039978 27 425.911011
vertex -269.039978 27 -70
vertex -119.040001 27 175.910995
endloop 
endfacet 
facet normal 0 1 0
outer loop 
vertex -119.040001 177 175.910995
vertex -119.040001 177 -70
vertex -269.039978 177 -70
endloop 
endfacet 
facet normal 0 1 0
outer loop 
vertex -119.040001 177 275.911011
vertex -269.039978 177 425.911011
vertex 21 177 425.911011
endloop 
endfacet 
facet normal 0 1 0
outer loop 
vertex 21 177 425.911011
vertex 21 177 275.911011
vertex -119.040001 177 275.911011
endloop 
endfacet 
facet normal 0 1 0
outer loop 
vertex -119.040001 177 175.910995
vertex -269.039978 177 -70
vertex -269.039978 177 425.911011
endloop 
endfacet 
facet normal 0 1 0
outer loop 
vertex -269.039978 177 425.911011
vertex -119.040001 177 275.911011
vertex -119.040001 177 175.910995
endloop 
endfacet 
facet normal 0 0.642958 -0.765901
outer loop 
vertex -119.040001 120.384773 157.52623
vertex -104.039993 120.384773 157.52623
vertex -104.039993 115 153.394348
endloop 
endfacet 
facet normal 0 0.42282 -0.906214
outer loop 
vertex -119.040001 115 153.394348
vertex -104.039993 115 153.394348
vertex -104.039993 108.729294 150.796936
endloop 
endfacet 
facet normal 0 0.173868 -0.984769
outer loop 
vertex -119.040001 108.729294 150.796936
vertex -104.039993 108.729294 150.796936
vertex -104.039993 102 149.910995
endloop 
endfacet 
facet normal 0 -0.086934 -0.996214
outer loop 
vertex -119.040001 102 149.910995
vertex -104.039993 102 149.910995
vertex -104.039993 95.270706 150.796936
endloop 
endfacet 
facet normal 0 -0.341811 -0.939769
outer loop 
vertex -119.040001 95.270706 150.796936
vertex -104.039993 95.270706 150.796936
vertex -104.039993 89 153.394348
endloop 
endfacet 
facet normal 0 -0.573394 -0.81928
outer loop 
vertex -119.040001 89 153.394348
vertex -104.039993 89 153.394348
vertex -104.039993 83.615219 157.52623
endloop 
endfacet 
facet normal 0 -0.765901 -0.642958
outer loop 
vertex -119.040001 83.615219 157.52623
vertex -104.039993 83.615219 157.52623
vertex -104.039993 79.483337 162.910995
endloop 
endfacet 
facet normal 0 -0.906214 -0.42282
outer loop 
vertex -119.040001 79.483337 162.910995
vertex -104.039993 79.483337 162.910995
vertex -104.039993 76.885933 169.181702
endloop 
endfacet 
facet normal -0 -0.984769 -0.173868
outer loop 
vertex -119.040001 76.885933 169.181702
vertex -104.039993 76.885933 169.181702
vertex -104.039993 76 175.910995
endloop 
endfacet 
facet normal -0 -0.996214 0.086934
outer loop 
vertex -119.040001 76 175.910995
vertex -104.039993 76 175.910995
vertex -104.039993 76.885933 182.640305
endloop 
endfacet 
facet normal -0 0.173868 0.984769
outer loop 
vertex -104.039993 108.729294 201.02507
vertex -119.040001 108.729294 201.02507
vertex -119.040001 102 201.910995
endloop 
endfacet 
facet normal -0 -0.81928 0.573394
outer loop 
vertex -119.040001 79.483337 188.911011
vertex -104.039993 79.483337 188.911011
vertex -104.039993 83.615219 194.295776
endloop 
endfacet 
facet normal -0 -0.642958 0.765901
outer loop 
vertex -119.040001 83.615219 194.295776
vertex -104.039993 83.615219 194.295776
vertex -104.039993 89 198.427658
endloop 
endfacet 
facet normal -0 -0.42282 0.906214
outer loop 
vertex -119.040001 89 198.427658
vertex -104.039993 89 198.427658
vertex -104.039993 95.270706 201.02507
endloop 
endfacet 
facet normal -0 -0.173868 0.984769
outer loop 
vertex -119.040001 95.270706 201.02507
vertex -104.039993 95.270706 201.02507
vertex -104.039993 102 201.910995
endloop 
endfacet 
facet normal -0 -0.939769 0.341811
outer loop 
vertex -119.040001 76.885933 182.640305
vertex -104.039993 76.885933 182.640305
vertex -104.039993 79.483337 188.911011
endloop 
endfacet 
facet normal -0 -0.906214 0.42282
outer loop 
vertex -104.039993 79.483337 188.911011
vertex -119.040001 79.483337 188.911011
vertex -119.040001 76.885933 182.640305
endloop 
endfacet 
facet normal -0 -0.086934 0.996214
outer loop 
vertex -104.039993 102 201.910995
vertex -119.040001 102 201.910995
vertex -119.040001 95.270706 201.02507
endloop 
endfacet 
facet normal -0 -0.341811 0.939769
outer loop 
vertex -104.039993 95.270706 201.02507
vertex -119.040001 95.270706 201.02507
vertex -119.040001 89 198.427658
endloop 
endfacet 
facet normal -0 -0.573394 0.81928
outer loop 
vertex -104.039993 89 198.427658
vertex -119.040001 89 198.427658
vertex -119.040001 83.615219 194.295776
endloop 
endfacet 
facet normal -0 -0.765901 0.642958
outer loop 
vertex -104.039993 83.615219 194.295776
vertex -119.040001 83.615219 194.295776
vertex -119.040001 79.483337 188.911011
endloop 
endfacet 
facet normal -0 -0.984769 0.173868
outer loop 
vertex -104.039993 76.885933 182.640305
vertex -119.040001 76.885933 182.640305
vertex -119.040001 76 175.910995
endloop 
endfacet 
facet normal -0 -0.996214 -0.086934
outer loop 
vertex -104.039993 76 175.910995
vertex -119.040001 76 175.910995
vertex -119.040001 76.885933 169.181702
endloop 
endfacet 
facet normal 0 -0.939769 -0.341811
outer loop 
vertex -104.039993 76.885933 169.181702
vertex -119.040001 76.885933 169.181702
vertex -119.040001 79.483337 162.910995
endloop 
endfacet 
facet normal 0 -0.81928 -0.573394
outer loop 
vertex -104.039993 79.483337 162.910995
vertex -119.040001 79.483337 162.910995
vertex -119.040001 83.615219 157.52623
endloop 
endfacet 
facet normal 0 -0.642958 -0.765901
outer loop 
vertex -104.039993 83.615219 157.52623
vertex -119.040001 83.615219 157.52623
vertex -119.040001 89 153.394348
endloop 
endfacet 
facet normal 0 -0.42282 -0.906214
outer loop 
vertex -104.039993 89 153.394348
vertex -119.040001 89 153.394348
vertex -119.040001 95.270706 150.796936
endloop 
endfacet 
facet normal 0 -0.173868 -0.984769
outer loop 
vertex -104.039993 95.270706 150.796936
vertex -119.040001 95.270706 150.796936
vertex -119.040001 102 149.910995
endloop 
endfacet 
facet normal 0 0.086934 -0.996214
outer loop 
vertex -104.039993 102 149.910995
vertex -119.040001 102 149.910995
vertex -119.040001 108.729294 150.796936
endloop 
endfacet 
facet normal 0 0.341811 -0.939769
outer loop 
vertex -104.039993 108.729294 150.796936
vertex -119.040001 108.729294 150.796936
vertex -119.040001 115 153.394348
endloop 
endfacet 
facet normal 0 0.573394 -0.81928
outer loop 
vertex -104.039993 115 153.394348
vertex -119.040001 115 153.394348
vertex -119.040001 120.384773 157.52623
endloop 
endfacet 
facet normal 0 0.765901 -0.642958
outer loop 
vertex -104.039993 120.384773 157.52623
vertex -119.040001 120.384773 157.52623
vertex -119.040001 124.516655 162.910995
endloop 
endfacet 
facet normal 0 0.906214 -0.42282
outer loop 
vertex -104.039993 124.516655 162.910995
vertex -119.040001 124.516655 162.910995
vertex -119.040001 127.114075 169.181702
endloop 
endfacet 
facet normal 0 0.984769 -0.173868
outer loop 
vertex -104.039993 127.114075 169.181702
vertex -119.040001 127.114075 169.181702
vertex -119.040001 128 175.910995
endloop 
endfacet 
facet normal 0 0.996214 0.086934
outer loop 
vertex -104.039993 128 175.910995
vertex -119.040001 128 175.910995
vertex -119.040001 127.114075 182.640305
endloop 
endfacet 
facet normal -0 0.939769 0.341811
outer loop 
vertex -104.039993 127.114075 182.640305
vertex -119.040001 127.114075 182.640305
vertex -119.040001 124.516655 188.911011
endloop 
endfacet 
facet normal -0 0.81928 0.573394
outer loop 
vertex -104.039993 124.516655 188.911011
vertex -119.040001 124.516655 188.911011
vertex -119.040001 120.384773 194.295776
endloop 
endfacet 
facet normal -0 0.642958 0.765901
outer loop 
vertex -104.039993 120.384773 194.295776
vertex -119.040001 120.384773 194.295776
vertex -119.040001 115 198.427658
endloop 
endfacet 
facet normal -0 0.42282 0.906214
outer loop 
vertex -104.039993 115 198.427658
vertex -119.040001 115 198.427658
vertex -119.040001 108.729294 201.02507
endloop 
endfacet 
facet normal -0 0.086934 0.996214
outer loop 
vertex -119.040001 102 201.910995
vertex -104.039993 102 201.910995
vertex -104.039993 108.729294 201.02507
endloop 
endfacet 
facet normal -0 0.341811 0.939769
outer loop 
vertex -119.040001 108.729294 201.02507
vertex -104.039993 108.729294 201.02507
vertex -104.039993 115 198.427658
endloop 
endfacet 
facet normal -0 0.573394 0.81928
outer loop 
vertex -119.040001 115 198.427658
vertex -104.039993 115 198.427658
vertex -104.039993 120.384773 194.295776
endloop 
endfacet 
facet normal -0 0.765901 0.642958
outer loop 
vertex -119.040001 120.384773 194.295776
vertex -104.039993 120.384773 194.295776
vertex -104.039993 124.516655 188.911011
endloop 
endfacet 
facet normal -0 0.906214 0.42282
outer loop 
vertex -119.040001 124.516655 188.911011
vertex -104.039993 124.516655 188.911011
vertex -104.039993 127.114075 182.640305
endloop 
endfacet 
facet normal 0 0.984769 0.173868
outer loop 
vertex -119.040001 127.114075 182.640305
vertex -104.039993 127.114075 182.640305
vertex -104.039993 128 175.910995
endloop 
endfacet 
facet normal 0 0.996214 -0.086934
outer loop 
vertex -119.040001 128 175.910995
vertex -104.039993 128 175.910995
vertex -104.039993 127.114075 169.181702
endloop 
endfacet 
facet normal 0 0.939769 -0.341811
outer loop 
vertex -119.040001 127.114075 169.181702
vertex -104.039993 127.114075 169.181702
vertex -104.039993 124.516655 162.910995
endloop 
endfacet 
facet normal 0 0.81928 -0.573394
outer loop 
vertex -119.040001 124.516655 162.910995
vertex -104.039993 124.516655 162.910995
vertex -104.039993 120.384773 157.52623
endloop 
endfacet 
facet normal 1 -0 0
outer loop 
vertex -104.039993 86.545181 180.052109
vertex -104.039993 76.885933 182.640305
vertex -104.039993 76 175.910995
endloop 
endfacet 
facet normal 1 -0 0
outer loop 
vertex -104.039993 106.141106 191.365814
vertex -104.039993 108.729294 201.02507
vertex -104.039993 102 201.910995
endloop 
endfacet 
facet normal 1 -0 0
outer loop 
vertex -104.039993 83.615219 157.52623
vertex -104.039993 89 153.394348
vertex -104.039993 94 162.054596
endloop 
endfacet 
facet normal 1 -0 0
outer loop 
vertex -104.039993 83.615219 157.52623
vertex -104.039993 90.686295 164.59729
vertex -104.039993 88.143593 167.910995
endloop 
endfacet 
facet normal 1 -0 0
outer loop 
vertex -104.039993 86 175.910995
vertex -104.039993 76 175.910995
vertex -104.039993 76.885933 169.181702
endloop 
endfacet 
facet normal 1 -0 0
outer loop 
vertex -104.039993 90.686295 187.224716
vertex -104.039993 83.615219 194.295776
vertex -104.039993 79.483337 188.911011
endloop 
endfacet 
facet normal 1 -0 0
outer loop 
vertex -104.039993 97.858902 191.365814
vertex -104.039993 102 191.910995
vertex -104.039993 102 201.910995
endloop 
endfacet 
facet normal 1 -0 0
outer loop 
vertex -104.039993 117.454811 180.052109
vertex -104.039993 127.114075 182.640305
vertex -104.039993 124.516655 188.911011
endloop 
endfacet 
facet normal 1 -0 0
outer loop 
vertex -104.039993 88.143593 167.910995
vertex -104.039993 86.545181 171.769897
vertex -104.039993 76.885933 169.181702
endloop 
endfacet 
facet normal 1 -0 0
outer loop 
vertex -104.039993 76 175.910995
vertex -104.039993 86 175.910995
vertex -104.039993 86.545181 180.052109
endloop 
endfacet 
facet normal 1 -0 0
outer loop 
vertex -104.039993 86.545181 180.052109
vertex -104.039993 88.143593 183.910995
vertex -104.039993 79.483337 188.911011
endloop 
endfacet 
facet normal 1 -0 0
outer loop 
vertex -104.039993 94 189.76741
vertex -104.039993 89 198.427658
vertex -104.039993 83.615219 194.295776
endloop 
endfacet 
facet normal 1 -0 0
outer loop 
vertex -104.039993 102 201.910995
vertex -104.039993 95.270706 201.02507
vertex -104.039993 97.858902 191.365814
endloop 
endfacet 
facet normal 1 -0 0
outer loop 
vertex -104.039993 102 201.910995
vertex -104.039993 102 191.910995
vertex -104.039993 106.141106 191.365814
endloop 
endfacet 
facet normal 1 -0 0
outer loop 
vertex -104.039993 113.313713 187.224716
vertex -104.039993 120.384773 194.295776
vertex -104.039993 115 198.427658
endloop 
endfacet 
facet normal 1 -0 0
outer loop 
vertex -104.039993 113.313713 164.59729
vertex -104.039993 120.384773 157.52623
vertex -104.039993 124.516655 162.910995
endloop 
endfacet 
facet normal 1 -0 0
outer loop 
vertex -104.039993 106.141106 160.456177
vertex -104.039993 102 159.911011
vertex -104.039993 102 149.910995
endloop 
endfacet 
facet normal 1 -0 0
outer loop 
vertex -104.039993 110 162.054596
vertex -104.039993 115 153.394348
vertex -104.039993 120.384773 157.52623
endloop 
endfacet 
facet normal 1 -0 0
outer loop 
vertex -104.039993 108.729294 201.02507
vertex -104.039993 106.141106 191.365814
vertex -104.039993 110 189.76741
endloop 
endfacet 
facet normal 1 -0 0
outer loop 
vertex -104.039993 115 198.427658
vertex -104.039993 110 189.76741
vertex -104.039993 113.313713 187.224716
endloop 
endfacet 
facet normal 1 -0 0
outer loop 
vertex -104.039993 124.516655 188.911011
vertex -104.039993 120.384773 194.295776
vertex -104.039993 113.313713 187.224716
endloop 
endfacet 
facet normal 1 -0 0
outer loop 
vertex -104.039993 128 175.910995
vertex -104.039993 118 175.910995
vertex -104.039993 117.454811 171.769897
endloop 
endfacet 
facet normal 1 -0 0
outer loop 
vertex -104.039993 124.516655 188.911011
vertex -104.039993 115.856407 183.910995
vertex -104.039993 117.454811 180.052109
endloop 
endfacet 
facet normal 1 -0 0
outer loop 
vertex -104.039993 94 162.054596
vertex -104.039993 90.686295 164.59729
vertex -104.039993 83.615219 157.52623
endloop 
endfacet 
facet normal 1 -0 0
outer loop 
vertex -104.039993 113.313713 187.224716
vertex -104.039993 115.856407 183.910995
vertex -104.039993 124.516655 188.911011
endloop 
endfacet 
facet normal 1 -0 0
outer loop 
vertex -104.039993 89 153.394348
vertex -104.039993 95.270706 150.796936
vertex -104.039993 97.858902 160.456177
endloop 
endfacet 
facet normal 1 -0 0
outer loop 
vertex -104.039993 97.858902 191.365814
vertex -104.039993 95.270706 201.02507
vertex -104.039993 89 198.427658
endloop 
endfacet 
facet normal 1 -0 0
outer loop 
vertex -104.039993 97.858902 160.456177
vertex -104.039993 94 162.054596
vertex -104.039993 89 153.394348
endloop 
endfacet 
facet normal 1 -0 0
outer loop 
vertex -104.039993 88.143593 167.910995
vertex -104.039993 79.483337 162.910995
vertex -104.039993 83.615219 157.52623
endloop 
endfacet 
facet normal 1 -0 0
outer loop 
vertex -104.039993 102 149.910995
vertex -104.039993 102 159.911011
vertex -104.039993 97.858902 160.456177
endloop 
endfacet 
facet normal 1 -0 0
outer loop 
vertex -104.039993 102 149.910995
vertex -104.039993 108.729294 150.796936
vertex -104.039993 106.141106 160.456177
endloop 
endfacet 
facet normal 1 -0 0
outer loop 
vertex -104.039993 97.858902 160.456177
vertex -104.039993 95.270706 150.796936
vertex -104.039993 102 149.910995
endloop 
endfacet 
facet normal 1 -0 0
outer loop 
vertex -104.039993 118 175.910995
vertex -104.039993 128 175.910995
vertex -104.039993 127.114075 182.640305
endloop 
endfacet 
facet normal 1 -0 0
outer loop 
vertex -104.039993 115.856407 167.910995
vertex -104.039993 124.516655 162.910995
vertex -104.039993 127.114075 169.181702
endloop 
endfacet 
facet normal 1 -0 0
outer loop 
vertex -104.039993 120.384773 157.52623
vertex -104.039993 113.313713 164.59729
vertex -104.039993 110 162.054596
endloop 
endfacet 
facet normal 1 -0 0
outer loop 
vertex -104.039993 115 153.394348
vertex -104.039993 110 162.054596
vertex -104.039993 106.141106 160.456177
endloop 
endfacet 
facet normal 1 -0 0
outer loop 
vertex -104.039993 127.114075 182.640305
vertex -104.039993 117.454811 180.052109
vertex -104.039993 118 175.910995
endloop 
endfacet 
facet normal 1 -0 0
outer loop 
vertex -104.039993 127.114075 169.181702
vertex -104.039993 117.454811 171.769897
vertex -104.039993 115.856407 167.910995
endloop 
endfacet 
facet normal 1 -0 0
outer loop 
vertex -104.039993 124.516655 162.910995
vertex -104.039993 115.856407 167.910995
vertex -104.039993 113.313713 164.59729
endloop 
endfacet 
facet normal 1 -0 0
outer loop 
vertex -104.039993 79.483337 188.911011
vertex -104.039993 88.143593 183.910995
vertex -104.039993 90.686295 187.224716
endloop 
endfacet 
facet normal 1 -0 0
outer loop 
vertex -104.039993 117.454811 171.769897
vertex -104.039993 127.114075 169.181702
vertex -104.039993 128 175.910995
endloop 
endfacet 
facet normal 1 -0 0
outer loop 
vertex -104.039993 110 189.76741
vertex -104.039993 115 198.427658
vertex -104.039993 108.729294 201.02507
endloop 
endfacet 
facet normal 1 -0 0
outer loop 
vertex -104.039993 89 198.427658
vertex -104.039993 94 189.76741
vertex -104.039993 97.858902 191.365814
endloop 
endfacet 
facet normal 1 -0 0
outer loop 
vertex -104.039993 83.615219 194.295776
vertex -104.039993 90.686295 187.224716
vertex -104.039993 94 189.76741
endloop 
endfacet 
facet normal 1 -0 0
outer loop 
vertex -104.039993 79.483337 188.911011
vertex -104.039993 76.885933 182.640305
vertex -104.039993 86.545181 180.052109
endloop 
endfacet 
facet normal 1 -0 0
outer loop 
vertex -104.039993 76.885933 169.181702
vertex -104.039993 86.545181 171.769897
vertex -104.039993 86 175.910995
endloop 
endfacet 
facet normal 1 -0 0
outer loop 
vertex -104.039993 76.885933 169.181702
vertex -104.039993 79.483337 162.910995
vertex -104.039993 88.143593 167.910995
endloop 
endfacet 
facet normal 1 -0 0
outer loop 
vertex -104.039993 106.141106 160.456177
vertex -104.039993 108.729294 150.796936
vertex -104.039993 115 153.394348
endloop 
endfacet 
facet normal 0 0.573394 -0.81928
outer loop 
vertex -9.04 108.687668 164.327621
vertex -74.040001 108.687668 164.327621
vertex -74.040001 111.457794 166.453217
endloop 
endfacet 
facet normal 0 0.765901 -0.642958
outer loop 
vertex -9.04 111.457794 166.453217
vertex -74.040001 111.457794 166.453217
vertex -74.040001 113.583389 169.223328
endloop 
endfacet 
facet normal 0 0.906214 -0.42282
outer loop 
vertex -9.04 113.583389 169.223328
vertex -74.040001 113.583389 169.223328
vertex -74.040001 114.919586 172.449203
endloop 
endfacet 
facet normal 0 0.984769 -0.173868
outer loop 
vertex -9.04 114.919586 172.449203
vertex -74.040001 114.919586 172.449203
vertex -74.040001 115.375343 175.910995
endloop 
endfacet 
facet normal 0 0.996214 0.086934
outer loop 
vertex -9.04 115.375343 175.910995
vertex -74.040001 115.375343 175.910995
vertex -74.040001 114.919586 179.372787
endloop 
endfacet 
facet normal -0 0.939769 0.341811
outer loop 
vertex -9.04 114.919586 179.372787
vertex -74.040001 114.919586 179.372787
vertex -74.040001 113.583389 182.598663
endloop 
endfacet 
facet normal -0 0.81928 0.573394
outer loop 
vertex -9.04 113.583389 182.598663
vertex -74.040001 113.583389 182.598663
vertex -74.040001 111.457794 185.36879
endloop 
endfacet 
facet normal -0 0.642958 0.765901
outer loop 
vertex -9.04 111.457794 185.36879
vertex -74.040001 111.457794 185.36879
vertex -74.040001 108.687668 187.494385
endloop 
endfacet 
facet normal -0 0.42282 0.906214
outer loop 
vertex -9.04 108.687668 187.494385
vertex -74.040001 108.687668 187.494385
vertex -74.040001 105.461792 188.830582
endloop 
endfacet 
facet normal -0 0.173868 0.984769
outer loop 
vertex -9.04 105.461792 188.830582
vertex -74.040001 105.461792 188.830582
vertex -74.040001 102 189.286331
endloop 
endfacet 
facet normal -0 -0.086934 0.996214
outer loop 
vertex -9.04 102 189.286331
vertex -74.040001 102 189.286331
vertex -74.040001 98.538208 188.830582
endloop 
endfacet 
facet normal -0 -0.341811 0.939769
outer loop 
vertex -9.04 98.538208 188.830582
vertex -74.040001 98.538208 188.830582
vertex -74.040001 95.312325 187.494385
endloop 
endfacet 
facet normal -0 -0.573394 0.81928
outer loop 
vertex -9.04 95.312325 187.494385
vertex -74.040001 95.312325 187.494385
vertex -74.040001 92.542206 185.36879
endloop 
endfacet 
facet normal -0 -0.765901 0.642958
outer loop 
vertex -9.04 92.542206 185.36879
vertex -74.040001 92.542206 185.36879
vertex -74.040001 90.416618 182.598663
endloop 
endfacet 
facet normal -0 -0.906214 0.42282
outer loop 
vertex -9.04 90.416618 182.598663
vertex -74.040001 90.416618 182.598663
vertex -74.040001 89.080414 179.372787
endloop 
endfacet 
facet normal -0 -0.984769 0.173868
outer loop 
vertex -9.04 89.080414 179.372787
vertex -74.040001 89.080414 179.372787
vertex -74.040001 88.624657 175.910995
endloop 
endfacet 
facet normal 0 -0.939769 -0.341811
outer loop 
vertex -9.04 89.080414 172.449203
vertex -74.040001 89.080414 172.449203
vertex -74.040001 90.416618 169.223328
endloop 
endfacet 
facet normal 0 -0.81928 -0.573394
outer loop 
vertex -9.04 90.416618 169.223328
vertex -74.040001 90.416618 169.223328
vertex -74.040001 92.542206 166.453217
endloop 
endfacet 
facet normal 0 -0.642958 -0.765901
outer loop 
vertex -9.04 92.542206 166.453217
vertex -74.040001 92.542206 166.453217
vertex -74.040001 95.312325 164.327621
endloop 
endfacet 
facet normal 0 -0.42282 -0.906214
outer loop 
vertex -9.04 95.312325 164.327621
vertex -74.040001 95.312325 164.327621
vertex -74.040001 98.538208 162.991425
endloop 
endfacet 
facet normal 0 -0.173868 -0.984769
outer loop 
vertex -9.04 98.538208 162.991425
vertex -74.040001 98.538208 162.991425
vertex -74.040001 102 162.53566
endloop 
endfacet 
facet normal -0 -0.996214 -0.086934
outer loop 
vertex -9.04 88.624657 175.910995
vertex -74.040001 88.624657 175.910995
vertex -74.040001 89.080414 172.449203
endloop 
endfacet 
facet normal -0 -0.642958 0.765901
outer loop 
vertex -74.040001 92.542206 185.36879
vertex -9.04 92.542206 185.36879
vertex -9.04 95.312325 187.494385
endloop 
endfacet 
facet normal 0 -0.086934 -0.996214
outer loop 
vertex -74.040001 102 162.53566
vertex -9.04 102 162.53566
vertex -9.04 98.538208 162.991425
endloop 
endfacet 
facet normal 0 -0.341811 -0.939769
outer loop 
vertex -74.040001 98.538208 162.991425
vertex -9.04 98.538208 162.991425
vertex -9.04 95.312325 164.327621
endloop 
endfacet 
facet normal 0 -0.573394 -0.81928
outer loop 
vertex -74.040001 95.312325 164.327621
vertex -9.04 95.312325 164.327621
vertex -9.04 92.542206 166.453217
endloop 
endfacet 
facet normal 0 -0.765901 -0.642958
outer loop 
vertex -74.040001 92.542206 166.453217
vertex -9.04 92.542206 166.453217
vertex -9.04 90.416618 169.223328
endloop 
endfacet 
facet normal 0 -0.906214 -0.42282
outer loop 
vertex -74.040001 90.416618 169.223328
vertex -9.04 90.416618 169.223328
vertex -9.04 89.080414 172.449203
endloop 
endfacet 
facet normal -0 -0.984769 -0.173868
outer loop 
vertex -74.040001 89.080414 172.449203
vertex -9.04 89.080414 172.449203
vertex -9.04 88.624657 175.910995
endloop 
endfacet 
facet normal -0 -0.996214 0.086934
outer loop 
vertex -74.040001 88.624657 175.910995
vertex -9.04 88.624657 175.910995
vertex -9.04 89.080414 179.372787
endloop 
endfacet 
facet normal -0 -0.939769 0.341811
outer loop 
vertex -74.040001 89.080414 179.372787
vertex -9.04 89.080414 179.372787
vertex -9.04 90.416618 182.598663
endloop 
endfacet 
facet normal -0 -0.81928 0.573394
outer loop 
vertex -74.040001 90.416618 182.598663
vertex -9.04 90.416618 182.598663
vertex -9.04 92.542206 185.36879
endloop 
endfacet 
facet normal -0 -0.42282 0.906214
outer loop 
vertex -74.040001 95.312325 187.494385
vertex -9.04 95.312325 187.494385
vertex -9.04 98.538208 188.830582
endloop 
endfacet 
facet normal -0 -0.173868 0.984769
outer loop 
vertex -74.040001 98.538208 188.830582
vertex -9.04 98.538208 188.830582
vertex -9.04 102 189.286331
endloop 
endfacet 
facet normal -0 0.086934 0.996214
outer loop 
vertex -74.040001 102 189.286331
vertex -9.04 102 189.286331
vertex -9.04 105.461792 188.830582
endloop 
endfacet 
facet normal -0 0.341811 0.939769
outer loop 
vertex -74.040001 105.461792 188.830582
vertex -9.04 105.461792 188.830582
vertex -9.04 108.687668 187.494385
endloop 
endfacet 
facet normal -0 0.573394 0.81928
outer loop 
vertex -74.040001 108.687668 187.494385
vertex -9.04 108.687668 187.494385
vertex -9.04 111.457794 185.36879
endloop 
endfacet 
facet normal -0 0.765901 0.642958
outer loop 
vertex -74.040001 111.457794 185.36879
vertex -9.04 111.457794 185.36879
vertex -9.04 113.583389 182.598663
endloop 
endfacet 
facet normal -0 0.906214 0.42282
outer loop 
vertex -74.040001 113.583389 182.598663
vertex -9.04 113.583389 182.598663
vertex -9.04 114.919586 179.372787
endloop 
endfacet 
facet normal 0 0.984769 0.173868
outer loop 
vertex -74.040001 114.919586 179.372787
vertex -9.04 114.919586 179.372787
vertex -9.04 115.375343 175.910995
endloop 
endfacet 
facet normal 0 0.996214 -0.086934
outer loop 
vertex -74.040001 115.375343 175.910995
vertex -9.04 115.375343 175.910995
vertex -9.04 114.919586 172.449203
endloop 
endfacet 
facet normal 0 0.939769 -0.341811
outer loop 
vertex -74.040001 114.919586 172.449203
vertex -9.04 114.919586 172.449203
vertex -9.04 113.583389 169.223328
endloop 
endfacet 
facet normal 0 0.81928 -0.573394
outer loop 
vertex -74.040001 113.583389 169.223328
vertex -9.04 113.583389 169.223328
vertex -9.04 111.457794 166.453217
endloop 
endfacet 
facet normal 0 0.642958 -0.765901
outer loop 
vertex -74.040001 111.457794 166.453217
vertex -9.04 111.457794 166.453217
vertex -9.04 108.687668 164.327621
endloop 
endfacet 
facet normal 0 0.42282 -0.906214
outer loop 
vertex -74.040001 108.687668 164.327621
vertex -9.04 108.687668 164.327621
vertex -9.04 105.461792 162.991425
endloop 
endfacet 
facet normal 0 0.173868 -0.984769
outer loop 
vertex -74.040001 105.461792 162.991425
vertex -9.04 105.461792 162.991425
vertex -9.04 102 162.53566
endloop 
endfacet 
facet normal 0 0.086934 -0.996214
outer loop 
vertex -9.04 102 162.53566
vertex -74.040001 102 162.53566
vertex -74.040001 105.461792 162.991425
endloop 
endfacet 
facet normal 0 0.341811 -0.939769
outer loop 
vertex -9.04 105.461792 162.991425
vertex -74.040001 105.461792 162.991425
vertex -74.040001 108.687668 164.327621
endloop 
endfacet 
facet normal 1 -0 0
outer loop 
vertex 21 27 275.911011
vertex 21 177 275.911011
vertex 21 177 425.911011
endloop 
endfacet 
facet normal 1 -0 0
outer loop 
vertex 21 177 425.911011
vertex 21 27 425.911011
vertex 21 27 275.911011
endloop 
endfacet 
facet normal 1 -0 0
outer loop 
vertex -119.040001 127.114075 182.640305
vertex -119.040001 128 175.910995
vertex -119.040001 177 175.910995
endloop 
endfacet 
facet normal 1 -0 0
outer loop 
vertex -119.040001 27 175.910995
vertex -119.040001 76.885933 182.640305
vertex -119.040001 79.483337 188.911011
endloop 
endfacet 
facet normal 1 -0 0
outer loop 
vertex -119.040001 27 175.910995
vertex -119.040001 76 175.910995
vertex -119.040001 76.885933 182.640305
endloop 
endfacet 
facet normal 1 -0 0
outer loop 
vertex -119.040001 115 198.427658
vertex -119.040001 120.384773 194.295776
vertex -119.040001 177 275.911011
endloop 
endfacet 
facet normal 1 -0 0
outer loop 
vertex -119.040001 79.483337 188.911011
vertex -119.040001 27 275.911011
vertex -119.040001 27 175.910995
endloop 
endfacet 
facet normal 1 -0 0
outer loop 
vertex -119.040001 102 201.910995
vertex -119.040001 108.729294 201.02507
vertex -119.040001 177 275.911011
endloop 
endfacet 
facet normal 1 -0 0
outer loop 
vertex -119.040001 177 275.911011
vertex -119.040001 27 275.911011
vertex -119.040001 102 201.910995
endloop 
endfacet 
facet normal 1 -0 0
outer loop 
vertex -119.040001 177 175.910995
vertex -119.040001 177 275.911011
vertex -119.040001 124.516655 188.911011
endloop 
endfacet 
facet normal 1 -0 0
outer loop 
vertex -119.040001 27 275.911011
vertex -119.040001 95.270706 201.02507
vertex -119.040001 102 201.910995
endloop 
endfacet 
facet normal 1 -0 0
outer loop 
vertex -119.040001 124.516655 188.911011
vertex -119.040001 127.114075 182.640305
vertex -119.040001 177 175.910995
endloop 
endfacet 
facet normal 1 -0 0
outer loop 
vertex -119.040001 27 275.911011
vertex -119.040001 89 198.427658
vertex -119.040001 95.270706 201.02507
endloop 
endfacet 
facet normal 1 -0 0
outer loop 
vertex -119.040001 27 275.911011
vertex -119.040001 79.483337 188.911011
vertex -119.040001 83.615219 194.295776
endloop 
endfacet 
facet normal 1 -0 0
outer loop 
vertex -119.040001 83.615219 194.295776
vertex -119.040001 89 198.427658
vertex -119.040001 27 275.911011
endloop 
endfacet 
facet normal 1 -0 0
outer loop 
vertex -119.040001 177 275.911011
vertex -119.040001 120.384773 194.295776
vertex -119.040001 124.516655 188.911011
endloop 
endfacet 
facet normal 1 -0 0
outer loop 
vertex -119.040001 177 275.911011
vertex -119.040001 108.729294 201.02507
vertex -119.040001 115 198.427658
endloop 
endfacet 
facet normal 1 -0 0
outer loop 
vertex -119.040001 27 -70
vertex -119.040001 177 -70
vertex -119.040001 102 149.910995
endloop 
endfacet 
facet normal 1 -0 0
outer loop 
vertex -119.040001 102 149.910995
vertex -119.040001 95.270706 150.796936
vertex -119.040001 27 -70
endloop 
endfacet 
facet normal 1 -0 0
outer loop 
vertex -119.040001 177 -70
vertex -119.040001 115 153.394348
vertex -119.040001 108.729294 150.796936
endloop 
endfacet 
facet normal 1 -0 0
outer loop 
vertex -119.040001 177 175.910995
vertex -119.040001 127.114075 169.181702
vertex -119.040001 124.516655 162.910995
endloop 
endfacet 
facet normal 1 -0 0
outer loop 
vertex -119.040001 108.729294 150.796936
vertex -119.040001 102 149.910995
vertex -119.040001 177 -70
endloop 
endfacet 
facet normal 1 -0 0
outer loop 
vertex -119.040001 27 -70
vertex -119.040001 83.615219 157.52623
vertex -119.040001 79.483337 162.910995
endloop 
endfacet 
facet normal 1 -0 0
outer loop 
vertex -119.040001 27 175.910995
vertex -119.040001 79.483337 162.910995
vertex -119.040001 76.885933 169.181702
endloop 
endfacet 
facet normal 1 -0 0
outer loop 
vertex -119.040001 27 -70
vertex -119.040001 89 153.394348
vertex -119.040001 83.615219 157.52623
endloop 
endfacet 
facet normal 1 -0 0
outer loop 
vertex -119.040001 120.384773 157.52623
vertex -119.040001 115 153.394348
vertex -119.040001 177 -70
endloop 
endfacet 
facet normal 1 -0 0
outer loop 
vertex -119.040001 79.483337 162.910995
vertex -119.040001 27 175.910995
vertex -119.040001 27 -70
endloop 
endfacet 
facet normal 1 -0 0
outer loop 
vertex -119.040001 177 175.910995
vertex -119.040001 128 175.910995
vertex -119.040001 127.114075 169.181702
endloop 
endfacet 
facet normal 1 -0 0
outer loop 
vertex -119.040001 95.270706 150.796936
vertex -119.040001 89 153.394348
vertex -119.040001 27 -70
endloop 
endfacet 
facet normal 1 -0 0
outer loop 
vertex -119.040001 76.885933 169.181702
vertex -119.040001 76 175.910995
vertex -119.040001 27 175.910995
endloop 
endfacet 
facet normal 1 -0 0
outer loop 
vertex -119.040001 177 -70
vertex -119.040001 177 175.910995
vertex -119.040001 124.516655 162.910995
endloop 
endfacet 
facet normal 1 -0 0
outer loop 
vertex -119.040001 124.516655 162.910995
vertex -119.040001 120.384773 157.52623
vertex -119.040001 177 -70
endloop 
endfacet 
facet normal 0 0 -1
outer loop 
vertex -119.040001 27 275.911011
vertex -119.040001 177 275.911011
vertex 21 177 275.911011
endloop 
endfacet 
facet normal 0 0 -1
outer loop 
vertex 21 177 275.911011
vertex 21 27 275.911011
vertex -119.040001 27 275.911011
endloop 
endfacet 
facet normal 1 -0 0
outer loop 
vertex -9.04 115.375343 175.910995
vertex -9.04 114.919586 179.372787
vertex -9.04 102 175.910995
endloop 
endfacet 
facet normal 1 -0 0
outer loop 
vertex -9.04 114.919586 172.449203
vertex -9.04 115.375343 175.910995
vertex -9.04 102 175.910995
endloop 
endfacet 
facet normal 1 -0 0
outer loop 
vertex -9.04 113.583389 169.223328
vertex -9.04 114.919586 172.449203
vertex -9.04 102 175.910995
endloop 
endfacet 
facet normal 1 -0 0
outer loop 
vertex -9.04 105.461792 188.830582
vertex -9.04 102 189.286331
vertex -9.04 102 175.910995
endloop 
endfacet 
facet normal 1 -0 0
outer loop 
vertex -9.04 108.687668 187.494385
vertex -9.04 105.461792 188.830582
vertex -9.04 102 175.910995
endloop 
endfacet 
facet normal 1 -0 0
outer loop 
vertex -9.04 111.457794 185.36879
vertex -9.04 108.687668 187.494385
vertex -9.04 102 175.910995
endloop 
endfacet 
facet normal 1 -0 0
outer loop 
vertex -9.04 111.457794 166.453217
vertex -9.04 113.583389 169.223328
vertex -9.04 102 175.910995
endloop 
endfacet 
facet normal 1 -0 0
outer loop 
vertex -9.04 108.687668 164.327621
vertex -9.04 111.457794 166.453217
vertex -9.04 102 175.910995
endloop 
endfacet 
facet normal 1 -0 0
outer loop 
vertex -9.04 105.461792 162.991425
vertex -9.04 108.687668 164.327621
vertex -9.04 102 175.910995
endloop 
endfacet 
facet normal 1 -0 0
outer loop 
vertex -9.04 113.583389 182.598663
vertex -9.04 111.457794 185.36879
vertex -9.04 102 175.910995
endloop 
endfacet 
facet normal 1 -0 0
outer loop 
vertex -9.04 98.538208 162.991425
vertex -9.04 102 162.53566
vertex -9.04 102 175.910995
endloop 
endfacet 
facet normal 1 -0 0
outer loop 
vertex -9.04 95.312325 164.327621
vertex -9.04 98.538208 162.991425
vertex -9.04 102 175.910995
endloop 
endfacet 
facet normal 1 -0 0
outer loop 
vertex -9.04 92.542206 166.453217
vertex -9.04 95.312325 164.327621
vertex -9.04 102 175.910995
endloop 
endfacet 
facet normal 1 -0 0
outer loop 
vertex -9.04 90.416618 169.223328
vertex -9.04 92.542206 166.453217
vertex -9.04 102 175.910995
endloop 
endfacet 
facet normal 1 -0 0
outer loop 
vertex -9.04 89.080414 172.449203
vertex -9.04 90.416618 169.223328
vertex -9.04 102 175.910995
endloop 
endfacet 
facet normal 1 -0 0
outer loop 
vertex -9.04 88.624657 175.910995
vertex -9.04 89.080414 172.449203
vertex -9.04 102 175.910995
endloop 
endfacet 
facet normal 1 -0 0
outer loop 
vertex -9.04 102 162.53566
vertex -9.04 105.461792 162.991425
vertex -9.04 102 175.910995
endloop 
endfacet 
facet normal 1 -0 0
outer loop 
vertex -9.04 90.416618 182.598663
vertex -9.04 89.080414 179.372787
vertex -9.04 102 175.910995
endloop 
endfacet 
facet normal 1 -0 0
outer loop 
vertex -9.04 92.542206 185.36879
vertex -9.04 90.416618 182.598663
vertex -9.04 102 175.910995
endloop 
endfacet 
facet normal 1 -0 0
outer loop 
vertex -9.04 95.312325 187.494385
vertex -9.04 92.542206 185.36879
vertex -9.04 102 175.910995
endloop 
endfacet 
facet normal 1 -0 0
outer loop 
vertex -9.04 102 175.910995
vertex -9.04 98.538208 188.830582
vertex -9.04 95.312325 187.494385
endloop 
endfacet 
facet normal 1 -0 0
outer loop 
vertex -9.04 102 189.286331
vertex -9.04 98.538208 188.830582
vertex -9.04 102 175.910995
endloop 
endfacet 
facet normal 1 -0 0
outer loop 
vertex -9.04 114.919586 179.372787
vertex -9.04 113.583389 182.598663
vertex -9.04 102 175.910995
endloop 
endfacet 
facet normal 1 -0 0
outer loop 
vertex -9.04 89.080414 179.372787
vertex -9.04 88.624657 175.910995
vertex -9.04 102 175.910995
endloop 
endfacet 
endsolid 
